# xmcd CD database file
#
# Track frame offsets:
#	150
#	6832
#	30402
#	50985
#	74030
#	91122
#	108362
#	125965
#	148447
#	177057
#
# Disc length: 2516 seconds
#
# Revision: 0
# Processed by: cddbd v1.5.2PL0 Copyright (c) Steve Scherf et al.
# Submitted via: CDex 1.82
#
DISCID=9409d20a
DTITLE=Fritz Brause  Bow-Tie And Rubber Boots - Bow-Tie And Rubber Boots
DYEAR=1986
DGENRE=Jazz
TTITLE0=Cozey (Instrumental)
TTITLE1=Whatever You Might Think
TTITLE2=Personal Colums
TTITLE3=Contemporary Blue
TTITLE4=Black Friday
TTITLE5=The Wunderbar
TTITLE6=Atacama (Instrumental)
TTITLE7=Pass It By
TTITLE8=48
TTITLE9=T.L.O.X.
EXTD=YEAR: 1986
EXTT0=
EXTT1=
EXTT2=
EXTT3=
EXTT4=
EXTT5=
EXTT6=
EXTT7=
EXTT8=
EXTT9=
PLAYORDER=
